<svg width="22" height="23" viewBox="0 0 22 23" fill="none" xmlns="http://www.w3.org/2000/svg">
<path d="M1 20.9992C3 20.9992 5.60801 21.3409 6.97485 19.9741C8.34168 18.6072 8.34168 16.3912 6.97485 15.0243C5.60801 13.6575 3.39194 13.6575 2.0251 15.0243C0.658265 16.3912 2.0251 18.9992 1 20.9992Z" stroke="#00B068" stroke-width="2" stroke-linecap="round" stroke-linejoin="round"/>
<path d="M6.99995 14.9992C6.50853 14.5078 6.26283 14.2621 6.12391 14.0048C5.79079 13.3877 5.80514 12.6413 6.16173 12.0376C6.31043 11.7858 6.5654 11.5497 7.07534 11.0775L16.9434 1.94044C17.8126 1.13565 19.1624 1.1616 19.9999 1.9992C20.8375 2.83679 20.8635 4.18657 20.0587 5.05574L10.9216 14.9238C10.4494 15.4337 10.2134 15.6887 9.96157 15.8374C9.35781 16.194 8.6114 16.2083 7.99438 15.8752C7.73707 15.7363 7.49136 15.4906 6.99995 14.9992Z" stroke="#00B068" stroke-width="2" stroke-linecap="round" stroke-linejoin="round"/>
</svg>
