<svg xmlns="http://www.w3.org/2000/svg" aria-hidden="true" style="position:absolute;width:0;height:0;overflow:hidden">
  <defs>
    <symbol id="icon-benefits-art" viewBox="0 0 31 32">
      <path stroke-linecap="round" stroke-linejoin="round" stroke-width="2.783" d="M1.391 29.216c2.783 0 6.411.475 8.313-1.426a4.87 4.87 0 1 0-6.887-6.887c-1.902 1.902 0 5.53-1.426 8.313z"/>
      <path stroke-linecap="round" stroke-linejoin="round" stroke-width="2.783" d="M9.739 20.868c-.684-.684-1.026-1.026-1.219-1.384a2.782 2.782 0 0 1 .053-2.737c.207-.35.562-.679 1.271-1.336L23.573 2.699a3.067 3.067 0 0 1 4.335 4.335L15.195 20.763c-.657.709-.985 1.064-1.336 1.271a2.784 2.784 0 0 1-2.737.053c-.358-.193-.7-.535-1.384-1.219z"/>
    </symbol>
    <symbol id="icon-benefits-communication" viewBox="0 0 33 32">
      <path stroke-linecap="round" stroke-linejoin="round" stroke-width="2.909" d="M7.41 14.878a11.71 11.71 0 0 1-.137-1.787c0-6.427 5.244-11.636 11.713-11.636s11.713 5.21 11.713 11.636a11.54 11.54 0 0 1-.756 4.123c-.102.266-.152.399-.175.503s-.032.175-.034.281c-.002.106.012.224.041.458l.585 4.757c.063.515.095.772.009.96a.73.73 0 0 1-.374.366c-.189.081-.446.044-.959-.032l-4.633-.679c-.242-.035-.363-.053-.473-.052a1.357 1.357 0 0 0-.291.031 4.298 4.298 0 0 0-.521.177 11.855 11.855 0 0 1-5.92.61m-7.552 5.951c4.313 0 7.809-3.582 7.809-8s-3.496-8-7.809-8c-4.313 0-7.809 3.582-7.809 8 0 .888.141 1.742.402 2.541.11.337.165.506.183.621.019.12.022.188.015.31a3.636 3.636 0 0 1-.094.511l-.889 4.017 4.356-.595c.238-.032.357-.049.46-.048.109.001.167.007.275.028.102.02.253.074.556.18a7.645 7.645 0 0 0 2.544.434z"/>
    </symbol>
    <symbol id="icon-benefits-expertise" viewBox="0 0 32 32">
      <path stroke-linecap="round" stroke-linejoin="round" stroke-width="2.667" d="M26.667 28c0-1.861 0-2.791-.23-3.548a5.333 5.333 0 0 0-3.556-3.556c-.757-.23-1.687-.23-3.548-.23h-6.667c-1.861 0-2.791 0-3.548.23a5.335 5.335 0 0 0-3.556 3.556c-.23.757-.23 1.687-.23 3.548M16 16a6 6 0 1 0 0-12 6 6 0 0 0 0 12z"/>
    </symbol>
    <symbol id="icon-benefits-urgent" viewBox="0 0 23 32">
      <path stroke-linecap="round" stroke-linejoin="round" stroke-width="2.909" d="M20.6 1.455H2.673C2 1.455 1.455 2 1.455 2.673c0 3.877 1.54 7.595 4.281 10.336l1.773 1.773c.176.176.264.264.327.349a1.454 1.454 0 0 1 0 1.739 3.703 3.703 0 0 1-.327.349l-1.773 1.773a14.617 14.617 0 0 0-4.281 10.336c0 .673.545 1.218 1.218 1.218H20.6c.673 0 1.218-.545 1.218-1.218 0-3.877-1.54-7.595-4.281-10.336l-1.773-1.773a3.58 3.58 0 0 1-.327-.349 1.454 1.454 0 0 1 0-1.739 3.58 3.58 0 0 1 .327-.349l1.773-1.773a14.617 14.617 0 0 0 4.281-10.336c0-.673-.545-1.218-1.218-1.218z"/>
    </symbol>
    <symbol id="icon-FAQ-vector-down" viewBox="0 0 50 32">
      <path stroke-linecap="round" stroke-width="7.111" d="M46.222 3.556 24.889 24.889 3.556 3.556"/>
    </symbol>
    <symbol id="icon-FAQ-vector-up" viewBox="0 0 50 32">
      <path stroke-linecap="round" stroke-width="7.111" d="M46.222 28.444 24.889 7.111 3.556 28.444"/>
    </symbol>
    <symbol id="icon-hero-arrow" viewBox="0 0 60 32">
      <path d="M2 14a2 2 0 1 0 0 4v-4zm57.414 3.414a2 2 0 0 0 0-2.828L46.686 1.858a2 2 0 1 0-2.828 2.828L55.172 16 43.858 27.314a2 2 0 1 0 2.828 2.828l12.728-12.728zM2 18h56v-4H2v4z"/>
    </symbol>
    <symbol id="icon-lets-email" viewBox="0 0 44 32">
      <path stroke-linecap="round" stroke-linejoin="round" stroke-width="2" d="M41.5 5.5v21A4.5 4.5 0 0 1 37 31H7a4.5 4.5 0 0 1-4.5-4.5v-21m39 0A4.5 4.5 0 0 0 37 1H7a4.5 4.5 0 0 0-4.5 4.5m39 0v.486a4.494 4.494 0 0 1-2.14 3.832l-15 9.23a4.503 4.503 0 0 1-4.72 0l-15-9.228A4.494 4.494 0 0 1 2.5 5.988V5.5"/>
    </symbol>
    <symbol id="icon-lets-location" viewBox="0 0 32 32">
      <path stroke-linecap="round" stroke-linejoin="round" stroke-width="1.333" d="M20 14a4.003 4.003 0 0 1-4 4 4.003 4.003 0 0 1-4-4 4.003 4.003 0 0 1 4-4 4.003 4.003 0 0 1 4 4z"/>
      <path stroke-linecap="round" stroke-linejoin="round" stroke-width="1.333" d="M26 14c0 9.523-10 15-10 15S6 23.523 6 14a10.001 10.001 0 0 1 20 0z"/>
    </symbol>
    <symbol id="icon-lets-phone" viewBox="0 0 32 32">
      <path stroke-linecap="round" stroke-linejoin="round" stroke-width="1.454" d="M1.818 8.364c0 12.049 9.769 21.818 21.818 21.818h3.273a3.272 3.272 0 0 0 3.273-3.273v-1.996c0-.751-.511-1.405-1.239-1.587l-6.433-1.609c-.64-.16-1.312.08-1.706.607l-1.411 1.881c-.41.547-1.119.788-1.76.553a17.502 17.502 0 0 1-10.39-10.39c-.236-.641.006-1.35.553-1.76l1.881-1.411a1.634 1.634 0 0 0 .607-1.706L8.675 3.058a1.633 1.633 0 0 0-1.587-1.24H5.092a3.272 3.272 0 0 0-3.273 3.273v3.273z"/>
    </symbol>
    <symbol id="icon-my-projects-arrow" viewBox="0 0 32 32">
      <path stroke-linecap="round" stroke-linejoin="round" stroke-width="3.556" d="M3.111 28.889 28.889 3.111m0 0h-24m24 0v24"/>
    </symbol>
    <symbol id="icon-reviews-arrow-left" viewBox="0 0 32 32">
      <path stroke-linecap="round" stroke-linejoin="round" stroke-width="2.667" d="M26.667 16H5.334M13.333 24l-8-8 8-8"/>
    </symbol>
    <symbol id="icon-reviews-arrow-right" viewBox="0 0 32 32">
      <path stroke-linecap="round" stroke-linejoin="round" stroke-width="2.667" d="M5.333 16h21.333M18.667 8l8 8-8 8"/>
    </symbol>
  </defs>
</svg>
