<svg xmlns="http://www.w3.org/2000/svg" aria-hidden="true" style="position:absolute;width:0;height:0;overflow:hidden">
  <defs>
    <symbol id="icon-reviews-next" viewBox="0 0 32 32">
      <path stroke-linecap="round" stroke-linejoin="round" stroke-width="2.667" d="M5.333 16h21.333M18.667 8l8 8-8 8"/>
    </symbol>
    <symbol id="icon-reviews-prev" viewBox="0 0 32 32">
      <path stroke-linecap="round" stroke-linejoin="round" stroke-width="2.667" d="M26.667 16H5.334M13.333 24l-8-8 8-8"/>
    </symbol>
    <symbol id="icon-tech-skills-dot" viewBox="0 0 31 32">
      <path d="m18.035 11.448-4.92-.172a2.462 2.462 0 0 0-2.546 2.374l-.172 4.92a2.462 2.462 0 0 0 2.374 2.546l4.92.172a2.462 2.462 0 0 0 2.546-2.374l.172-4.92a2.462 2.462 0 0 0-2.374-2.546z"/>
    </symbol>
    <symbol id="icon-my-project-arrow" viewBox="0 0 32 32">
      <path stroke-linecap="round" stroke-linejoin="round" stroke-width="3.556" d="M3.111 28.889 28.889 3.111m0 0h-24m24 0v24"/>
    </symbol>
    <symbol id="icon-hero-arrow" viewBox="0 0 60 32">
      <path d="M2 14a2 2 0 1 0 0 4v-4zm57.414 3.414a2 2 0 0 0 0-2.828L46.686 1.858a2 2 0 1 0-2.828 2.828L55.172 16 43.858 27.314a2 2 0 1 0 2.828 2.828l12.728-12.728zM2 18h56v-4H2v4z"/>
    </symbol>
    <symbol id="icon-lets-email" viewBox="0 0 44 32">
      <path stroke-linecap="round" stroke-linejoin="round" stroke-width="2" d="M41.5 5.5v21A4.5 4.5 0 0 1 37 31H7a4.5 4.5 0 0 1-4.5-4.5v-21m39 0A4.5 4.5 0 0 0 37 1H7a4.5 4.5 0 0 0-4.5 4.5m39 0v.486a4.494 4.494 0 0 1-2.14 3.832l-15 9.23a4.503 4.503 0 0 1-4.72 0l-15-9.228A4.494 4.494 0 0 1 2.5 5.988V5.5"/>
    </symbol>
    <symbol id="icon-lets-location" viewBox="0 0 32 32">
      <path stroke-linecap="round" stroke-linejoin="round" stroke-width="1.333" d="M20 14a4.003 4.003 0 0 1-4 4 4.003 4.003 0 0 1-4-4 4.003 4.003 0 0 1 4-4 4.003 4.003 0 0 1 4 4z"/>
      <path stroke-linecap="round" stroke-linejoin="round" stroke-width="1.333" d="M26 14c0 9.523-10 15-10 15S6 23.523 6 14a10.001 10.001 0 0 1 20 0z"/>
    </symbol>
    <symbol id="icon-lets-phone" viewBox="0 0 32 32">
      <path stroke-linecap="round" stroke-linejoin="round" stroke-width="1.454" d="M1.818 8.364c0 12.049 9.769 21.818 21.818 21.818h3.273a3.272 3.272 0 0 0 3.273-3.273v-1.996c0-.751-.511-1.405-1.239-1.587l-6.433-1.609c-.64-.16-1.312.08-1.706.607l-1.411 1.881c-.41.547-1.119.788-1.76.553a17.502 17.502 0 0 1-10.39-10.39c-.236-.641.006-1.35.553-1.76l1.881-1.411a1.634 1.634 0 0 0 .607-1.706L8.675 3.058a1.633 1.633 0 0 0-1.587-1.24H5.092a3.272 3.272 0 0 0-3.273 3.273v3.273z"/>
    </symbol>
    <symbol id="icon-FAQ-arrow-down" viewBox="0 0 50 32">
      <path stroke-linecap="round" stroke-width="7.111" d="M46.222 3.556 24.889 24.889 3.556 3.556"/>
    </symbol>
    <symbol id="icon-FAQ-arrow-up" viewBox="0 0 50 32">
      <path stroke-linecap="round" stroke-width="7.111" d="M46.222 28.444 24.889 7.111 3.556 28.444"/>
    </symbol>
    <symbol id="icon-benefits-art" viewBox="0 0 32 32">
      <path stroke-linecap="round" stroke-linejoin="round" stroke-width="2.783" d="M2.087 29.216c2.783 0 6.411.475 8.313-1.426a4.87 4.87 0 1 0-6.887-6.887c-1.902 1.902 0 5.53-1.426 8.313z"/>
      <path stroke-linecap="round" stroke-linejoin="round" stroke-width="2.783" d="M10.435 20.868c-.684-.684-1.026-1.026-1.219-1.384a2.782 2.782 0 0 1 .053-2.737c.207-.35.562-.679 1.271-1.336L24.269 2.699a3.067 3.067 0 0 1 4.335 4.335L15.891 20.763c-.657.709-.985 1.064-1.336 1.271a2.784 2.784 0 0 1-2.737.053c-.358-.193-.7-.535-1.384-1.219z"/>
    </symbol>
    <symbol id="icon-benefits-communication" viewBox="0 0 32 32">
      <path stroke-linecap="round" stroke-linejoin="round" stroke-width="2.783" d="M7.088 14.927a11.2 11.2 0 0 1-.131-1.71c0-6.147 5.016-11.13 11.204-11.13s11.204 4.983 11.204 11.13c0 1.389-.256 2.718-.723 3.944-.097.255-.146.382-.168.481s-.03.168-.033.269c-.002.102.011.214.039.438l.56 4.55c.061.493.091.739.009.918a.698.698 0 0 1-.358.35c-.181.078-.426.042-.917-.03l-4.432-.65c-.232-.034-.347-.051-.453-.05-.104.001-.176.008-.278.03s-.235.071-.498.17a11.353 11.353 0 0 1-5.663.583m-7.223 5.693c4.125 0 7.469-3.426 7.469-7.652s-3.344-7.652-7.469-7.652-7.469 3.426-7.469 7.652c0 .85.135 1.667.385 2.43.105.323.158.484.175.594.018.115.021.18.014.296-.006.111-.034.237-.09.489l-.851 3.842 4.167-.569c.227-.031.341-.047.44-.046.105.001.16.006.263.027.097.019.242.07.532.173a7.306 7.306 0 0 0 2.434.415z"/>
    </symbol>
    <symbol id="icon-benefits-expertise" viewBox="0 0 32 32">
      <path stroke-linecap="round" stroke-linejoin="round" stroke-width="2.667" d="M26.667 28c0-1.861 0-2.791-.23-3.548a5.333 5.333 0 0 0-3.556-3.556c-.757-.23-1.687-.23-3.548-.23h-6.667c-1.861 0-2.791 0-3.548.23a5.335 5.335 0 0 0-3.556 3.556c-.23.757-.23 1.687-.23 3.548M16 16a6 6 0 1 0 0-12 6 6 0 0 0 0 12z"/>
    </symbol>
    <symbol id="icon-benefits-urgent" viewBox="0 0 32 32">
      <path stroke-linecap="round" stroke-linejoin="round" stroke-width="2.909" d="M24.964 1.455H7.037c-.673 0-1.218.545-1.218 1.218 0 3.877 1.54 7.595 4.281 10.336l1.773 1.773c.176.176.264.264.327.349a1.454 1.454 0 0 1 0 1.739 3.703 3.703 0 0 1-.327.349L10.1 18.992a14.617 14.617 0 0 0-4.281 10.336c0 .673.545 1.218 1.218 1.218h17.927c.673 0 1.218-.545 1.218-1.218 0-3.877-1.54-7.595-4.281-10.336l-1.773-1.773a3.58 3.58 0 0 1-.327-.349 1.454 1.454 0 0 1 0-1.739 3.58 3.58 0 0 1 .327-.349l1.773-1.773a14.617 14.617 0 0 0 4.281-10.336c0-.673-.545-1.218-1.218-1.218z"/>
    </symbol>
    <symbol id="icon-burger-header" viewBox="0 0 32 32">
      <path d="M5.334 23.027v-1.333h21.333v1.333H5.334zm0-6.36v-1.333h21.333v1.333H5.334zm0-6.36V8.974h21.333v1.333H5.334z"/>
    </symbol>
    <symbol id="icon-close-btn-modal" viewBox="0 0 32 32">
      <path stroke-linecap="round" stroke-linejoin="round" stroke-width="2" d="M24 8 8 24M8 8l16 16"/>
    </symbol>
  </defs>
</svg>
